name D:\school\WTK\thesis\model\3dpredictsim\Results\debug_batch\Pog_s1_tmt_bCst_d05_k500_ig24_act_TTC.mot
datacolumns 128
datarows 4
range 1.88803469 1.92579538
endheader
time	pelvis_tilt	pelvis_list	pelvis_rotation	pelvis_tx	pelvis_ty	pelvis_tz	hip_flexion_l	hip_adduction_l	hip_rotation_l	hip_flexion_r	hip_adduction_r	hip_rotation_r	knee_angle_l	knee_angle_r	ankle_angle_l	ankle_angle_r	subtalar_angle_l	subtalar_angle_r	tmt_angle_l	tmt_angle_r	mtp_angle_l	mtp_angle_r	lumbar_extension	lumbar_bending	lumbar_rotation	arm_flex_l	arm_add_l	arm_rot_l	arm_flex_r	arm_add_r	arm_rot_r	elbow_flex_l	elbow_flex_r	pro_sup_l	pro_sup_r	glut_med1_l/activation	glut_med2_l/activation	glut_med3_l/activation	glut_min1_l/activation	glut_min2_l/activation	glut_min3_l/activation	semimem_l/activation	semiten_l/activation	bifemlh_l/activation	bifemsh_l/activation	sar_l/activation	add_long_l/activation	add_brev_l/activation	add_mag1_l/activation	add_mag2_l/activation	add_mag3_l/activation	tfl_l/activation	pect_l/activation	grac_l/activation	glut_max1_l/activation	glut_max2_l/activation	glut_max3_l/activation	iliacus_l/activation	psoas_l/activation	quad_fem_l/activation	gem_l/activation	peri_l/activation	rect_fem_l/activation	vas_med_l/activation	vas_int_l/activation	vas_lat_l/activation	med_gas_l/activation	lat_gas_l/activation	soleus_l/activation	tib_post_l/activation	flex_dig_l/activation	flex_hal_l/activation	tib_ant_l/activation	per_brev_l/activation	per_long_l/activation	per_tert_l/activation	ext_dig_l/activation	ext_hal_l/activation	ercspn_l/activation	intobl_l/activation	extobl_l/activation	glut_med1_r/activation	glut_med2_r/activation	glut_med3_r/activation	glut_min1_r/activation	glut_min2_r/activation	glut_min3_r/activation	semimem_r/activation	semiten_r/activation	bifemlh_r/activation	bifemsh_r/activation	sar_r/activation	add_long_r/activation	add_brev_r/activation	add_mag1_r/activation	add_mag2_r/activation	add_mag3_r/activation	tfl_r/activation	pect_r/activation	grac_r/activation	glut_max1_r/activation	glut_max2_r/activation	glut_max3_r/activation	iliacus_r/activation	psoas_r/activation	quad_fem_r/activation	gem_r/activation	peri_r/activation	rect_fem_r/activation	vas_med_r/activation	vas_int_r/activation	vas_lat_r/activation	med_gas_r/activation	lat_gas_r/activation	soleus_r/activation	tib_post_r/activation	flex_dig_r/activation	flex_hal_r/activation	tib_ant_r/activation	per_brev_r/activation	per_long_r/activation	per_tert_r/activation	ext_dig_r/activation	ext_hal_r/activation	ercspn_r/activation	intobl_r/activation	extobl_r/activation	
          1.88803469	         -2.92912080	          1.29829015	         -9.17158380	          2.36004336	          0.85369669	          0.00266554	         33.46381934	          0.53343747	         -0.41192491	        -16.14095444	         -3.08522184	          8.18641793	        -16.46191636	        -17.73122162	          8.08812378	        -11.45080792	          0.71862997	         17.79521424	          0.04087315	          2.15800546	         -0.06426461	         30.21066501	          0.02143255	          1.15176409	          3.33420463	        -14.28261850	        -13.65432781	          9.38936000	          2.75792006	        -13.55489582	         17.93307022	         18.35201252	         49.27119408	         86.51662706	         86.51662706	          0.05000088	          0.05000018	          0.05000004	          0.06048908	          0.06048903	          0.05000029	          0.15492874	          0.06048898	          0.10662136	          0.06048903	          0.06048899	          0.08876780	          0.16255277	          0.12482144	          0.12750927	          0.13991347	          0.05000002	          0.07318092	          0.06158046	          0.05000007	          0.05000008	          0.16969061	          0.06048918	          0.06048913	          0.17140003	          0.21968880	          0.18878719	          0.06643364	          0.18987181	          0.18710256	          0.16434770	          0.05782817	          0.05679402	          0.06048907	          0.05000001	          0.05012834	          0.06458477	          0.60465560	          0.31040188	          0.18078976	          0.49943743	          0.62436052	          0.47593855	          0.05000000	          0.11513727	          0.10665852	          0.12212689	          0.08594259	          0.05000028	          0.16554924	          0.12092558	          0.07782718	          0.05000031	          0.05000003	          0.05000003	          0.05000007	          0.07051541	          0.11666067	          0.21077322	          0.05722521	          0.05000115	          0.05000016	          0.15943267	          0.08857578	          0.06273817	          0.05000051	          0.05000037	          0.05000030	          0.29416609	          0.47410036	          0.07062596	          0.05000047	          0.05776238	          0.24941735	          0.06048913	          0.07234782	          0.06723380	          0.13450973	          0.20363130	          0.05000000	          0.13310470	          0.16841814	          0.17617645	          0.23863395	          0.44728716	          0.34333052	          0.48345044	          0.43610061	          0.18194722	          0.05000000	          0.05044963	          0.07475488	
          1.90062159	         -2.92178708	          1.22277274	         -9.31078409	          2.38076561	          0.85207081	          0.00228044	         32.67105366	          0.81129246	         -0.16897610	        -16.09842108	         -3.23400200	          7.86617967	        -16.84161311	        -19.45995774	          7.29646082	        -14.18868317	          0.33511803	         18.01360252	          0.06613480	          1.53594872	         -0.03123939	         31.16453051	          0.29926723	          0.99432171	          3.43348960	        -15.79032709	        -13.63167672	          9.37041151	          2.15403486	        -13.63872911	         18.10536441	         18.32728729	         50.54167764	         86.51662706	         86.51662706	          0.18096265	          0.05000003	          0.16043591	          0.05000002	          0.05000002	          0.05000004	          0.12806340	          0.05000002	          0.08813274	          0.05000000	          0.05000002	          0.07337509	          0.13436542	          0.27967710	          0.23955370	          0.15066624	          0.06048875	          0.06049121	          0.05090227	          0.13731084	          0.13533945	          0.15609386	          0.05000009	          0.05000008	          0.33576136	          0.18159378	          0.15605066	          0.06048910	          0.27323761	          0.26847253	          0.23616679	          0.05000001	          0.05000003	          0.05000000	          0.06048904	          0.06048907	          0.06048894	          0.61848015	          0.38002815	          0.21983725	          0.50888900	          0.59936795	          0.39340867	          0.05000000	          0.09517195	          0.08816345	          0.10094954	          0.07103979	          0.07111524	          0.13684227	          0.09995655	          0.06433163	          0.06048874	          0.06048913	          0.06350809	          0.05000006	          0.05828774	          0.20804293	          0.28006434	          0.33279000	          0.14138773	          0.14483101	          0.13178634	          0.07321644	          0.06048958	          0.06048912	          0.06048953	          0.07317834	          0.24315636	          0.39188925	          0.07317855	          0.07317532	          0.06048924	          0.20616725	          0.05000012	          0.05980251	          0.07595628	          0.11118514	          0.16832071	          0.05000000	          0.11002374	          0.13921367	          0.14562666	          0.44554929	          0.46800672	          0.33438017	          0.71913319	          0.54171341	          0.36183907	          0.07128065	          0.06048914	          0.06179206	
          1.91320848	         -2.90981051	          1.15325339	         -9.40617562	          2.40143744	          0.85006757	          0.00191914	         31.69458262	          1.07601932	          0.13160507	        -15.80848886	         -3.33873042	          7.54022136	        -17.50635997	        -21.67239297	          6.76403429	        -16.31935399	         -0.07373222	         18.12356645	         -0.03432442	          1.05414388	         -0.20227987	         30.23723057	          0.56120144	          0.81410995	          3.51452886	        -17.20294613	        -13.62688338	          9.47566725	          1.52456888	        -13.72991433	         18.21854450	         18.19792926	         51.77343647	         86.51662706	         86.51662706	          0.26630270	          0.32922937	          0.44901532	          0.21878719	          0.19166546	          0.27338344	          0.10585666	          0.10567336	          0.09388965	          0.07317863	          0.05031564	          0.06065153	          0.11106586	          0.23117985	          0.19801413	          0.16884284	          0.05000003	          0.05000190	          0.09752060	          0.27032197	          0.21574849	          0.18493082	          0.05000002	          0.05000002	          0.27753954	          0.15010467	          0.33580275	          0.05000002	          0.22585698	          0.22191821	          0.19521441	          0.05000000	          0.05000001	          0.05000000	          0.05000000	          0.05000008	          0.05000004	          0.71272704	          0.36328589	          0.18171660	          0.73296507	          0.72288996	          0.52565533	          0.05298716	          0.09179909	          0.07287551	          0.22327215	          0.05872126	          0.05878354	          0.18896930	          0.08262376	          0.06048904	          0.05000028	          0.05000005	          0.05249551	          0.05000002	          0.06050047	          0.17196735	          0.23149993	          0.27508272	          0.11687048	          0.11971668	          0.11496506	          0.06052062	          0.05000045	          0.05000044	          0.05000048	          0.06048891	          0.20099199	          0.39470910	          0.06048906	          0.06048643	          0.05000018	          0.17041692	          0.08853002	          0.06434569	          0.06278518	          0.09190513	          0.13913313	          0.05000000	          0.09094512	          0.11507340	          0.12037434	          0.38255355	          0.41222650	          0.30074269	          0.66080558	          0.75081258	          0.29909456	          0.10976672	          0.05000005	          0.05107704	
          1.92579538	         -2.89642405	          1.09521363	         -9.44660536	          2.42167185	          0.84800502	          0.00150833	         30.77288849	          1.35677736	          0.41639343	        -15.25824977	         -3.42251496	          7.23581756	        -18.26537181	        -24.33208169	          6.28476173	        -17.77296320	         -0.52225246	         18.13425431	         -0.04646437	          0.68753078	         -0.20528865	         27.22433387	          0.77832638	          0.61100889	          3.57696433	        -18.41307165	        -13.62695355	          9.74510543	          0.94287267	        -13.80927069	         18.27866424	         17.88716791	         52.86507546	         86.51662706	         86.51662706	          0.38788047	          0.52654278	          0.67141865	          0.25849637	          0.39599916	          0.51193155	          0.08750064	          0.08859856	          0.07760877	          0.06048914	          0.05000004	          0.05013429	          0.09180654	          0.19109227	          0.19985526	          0.17920752	          0.05000003	          0.05000032	          0.08701518	          0.37200648	          0.28227611	          0.22264982	          0.05000000	          0.05000000	          0.22941297	          0.12407589	          0.30983156	          0.05000000	          0.35090924	          0.34972601	          0.30255738	          0.05000000	          0.05000000	          0.05000000	          0.07232891	          0.05000006	          0.05000004	          0.84379924	          0.30029047	          0.15020611	          0.60586564	          0.69129608	          0.64177620	          0.08592832	          0.07588071	          0.06023857	          0.18455576	          0.05000002	          0.05000000	          0.15620119	          0.06829645	          0.05000005	          0.06486996	          0.05000003	          0.05000004	          0.05000001	          0.05000948	          0.19706247	          0.19935096	          0.24125095	          0.09660499	          0.10709978	          0.09502962	          0.05002631	          0.05000007	          0.05000024	          0.05000016	          0.05000008	          0.16613908	          0.35176078	          0.05000001	          0.05000005	          0.05000001	          0.14086585	          0.07317856	          0.07317856	          0.07317856	          0.07596836	          0.11500682	          0.05000000	          0.07517483	          0.09511916	          0.09950089	          0.51292909	          0.36020708	          0.25762895	          0.59104383	          0.62061828	          0.24723027	          0.13360541	          0.05000000	          0.05000000	
